<svg width="64" height="64" viewBox="0 0 64 64" fill="none" xmlns="http://www.w3.org/2000/svg">
<path d="M27.0656 50.2798L27.0655 50.28C23.2971 50.28 19.5813 49.3061 16.3189 47.4633L16.3927 47.3327L16.3189 47.4633C13.1571 45.6769 10.463 43.1073 8.52855 40.0303C6.34062 36.5512 5.18398 32.5285 5.18398 28.3984C5.18398 24.2684 6.34061 20.2463 8.52855 16.7666C10.463 13.6896 13.1569 11.12 16.3189 9.33363L16.3189 9.33362C19.5814 7.49082 23.2971 6.5169 27.0655 6.5169C30.8339 6.5169 34.5503 7.49082 37.8122 9.33363L37.7384 9.46423L37.8122 9.33363C40.974 11.12 43.668 13.6896 45.6025 16.7666C47.7904 20.2463 48.9471 24.2688 48.9471 28.3984C48.9471 30.6458 48.6074 32.8623 47.9374 34.986C47.7734 35.5061 47.2187 35.7946 46.6987 35.6307C46.1786 35.4667 45.8901 34.912 46.0541 34.392L46.0541 34.3919C46.6634 32.4606 46.9721 30.444 46.9721 28.3979C46.9721 24.6404 45.92 20.9813 43.9302 17.8173C40.2583 11.9772 33.9541 8.49137 27.0648 8.49137C20.1758 8.49137 13.8705 11.9772 10.1993 17.8172L10.0723 17.7374L10.1993 17.8172C8.21001 20.9817 7.15784 24.641 7.15784 28.3983C7.15784 32.1556 8.20996 35.8149 10.1997 38.9789L10.0727 39.0588L10.1997 38.9789C13.8716 44.819 20.1753 48.3048 27.0651 48.3048C28.4746 48.3048 29.8808 48.1569 31.2449 47.8651C31.778 47.7511 32.3027 48.0908 32.4167 48.6243C32.5313 49.1576 32.1908 49.6821 31.6575 49.7961M27.0656 50.2798C28.6133 50.2798 30.1581 50.1172 31.6575 49.7961M27.0656 50.2798C27.0656 50.2798 27.0655 50.2798 27.0655 50.2798C27.0654 50.2798 27.0653 50.2798 27.0652 50.2798V50.1308M27.0656 50.2798L27.0983 50.1298C28.6247 50.1275 30.1477 49.9661 31.6262 49.6494M31.6575 49.7961L31.6262 49.6494M31.6575 49.7961C31.6575 49.7961 31.6576 49.7961 31.6576 49.7961L31.6262 49.6494M31.6262 49.6494L27.0652 50.1308M27.0652 50.1308L27.0031 50.2664L27.0028 50.2662L27.0325 50.13L27.0652 50.1308ZM27.0655 50.13V50.1298V50.13Z" fill="#6C96F9" stroke="#6C96F9" stroke-width="0.3"/>
<path d="M37.9189 34.8414L37.9189 34.8416C37.8343 35.3802 37.3301 35.7488 36.7911 35.6642C36.2525 35.5796 35.8838 35.0755 35.9684 34.5365C36.2776 32.5591 36.4346 30.494 36.4346 28.3984C36.4346 24.5512 35.9021 20.8123 34.8955 17.5862L34.8955 17.5862C34.0184 14.773 32.8108 12.4451 31.4091 10.8479C30.0473 9.29621 28.5441 8.49583 27.0664 8.49583C25.5887 8.49583 24.0857 9.29568 22.7238 10.8479L22.7238 10.8479C21.322 12.4451 20.1144 14.773 19.2374 17.5862L19.2374 17.5862C18.2313 20.8128 17.6983 24.5522 17.6983 28.3989C17.6983 32.2456 18.2308 35.9851 19.2374 39.2116L19.0942 39.2563L19.2374 39.2116C20.1144 42.0248 21.3221 44.3528 22.7238 45.95C24.0855 47.5016 25.5888 48.302 27.0664 48.302C27.6118 48.302 28.0537 48.7439 28.0537 49.2893V49.2894C28.0531 49.8338 27.6111 50.275 27.0659 50.275H27.0658C25.0286 50.275 23.1045 49.2792 21.4409 47.4763C19.7779 45.6742 18.3682 43.0593 17.3515 39.7977C16.2855 36.3798 15.723 32.4374 15.723 28.3974C15.723 24.3574 16.286 20.4156 17.3515 16.9971C18.3681 13.7358 19.7779 11.1211 21.441 9.31903C23.1047 7.51618 25.0288 6.52035 27.0658 6.52035C29.1027 6.52035 31.0268 7.51618 32.6906 9.3191C34.3536 11.1212 35.7634 13.736 36.7801 16.9976M37.9189 34.8414L36.7801 16.9976M37.9189 34.8414C38.2436 32.7628 38.4086 30.5952 38.4086 28.3979C38.4086 24.3579 37.8462 20.4156 36.7801 16.9976M37.9189 34.8414L36.7801 16.9976" fill="#6C96F9" stroke="#6C96F9" stroke-width="0.3"/>
<path d="M9.36654 18.2791H44.7676C45.3123 18.2791 45.7548 17.8378 45.7548 17.2919C45.7548 16.7465 45.3129 16.3046 44.7676 16.3046H9.36654C8.82122 16.3046 8.3793 16.7465 8.3793 17.2919C8.3793 17.8372 8.82122 18.2791 9.36654 18.2791Z" fill="#6C96F9" stroke="#6C96F9" stroke-width="0.3"/>
<path d="M9.36654 40.4922H31.4533C31.998 40.4922 32.4405 40.0503 32.4405 39.5049C32.4405 38.9596 31.9986 38.5177 31.4533 38.5177H9.36654C8.82122 38.5177 8.3793 38.9596 8.3793 39.5049C8.3793 40.0502 8.82122 40.4922 9.36654 40.4922Z" fill="#6C96F9" stroke="#6C96F9" stroke-width="0.3"/>
<path d="M6.17123 29.385H47.9602C48.5055 29.385 48.9475 28.9431 48.9475 28.3978C48.9475 27.8524 48.5055 27.4105 47.9602 27.4105H6.17123C5.62591 27.4105 5.18398 27.8524 5.18398 28.3978C5.18398 28.9431 5.62591 29.385 6.17123 29.385Z" fill="#6C96F9" stroke="#6C96F9" stroke-width="0.3"/>
<path d="M26.0785 49.2929C26.0785 49.8382 26.5204 50.2801 27.0658 50.2801C27.6111 50.2801 28.053 49.8376 28.053 49.2929V7.5039C28.053 6.95858 27.6111 6.51666 27.0658 6.51666C26.5204 6.51666 26.0785 6.95858 26.0785 7.5039V49.2929Z" fill="#6C96F9" stroke="#6C96F9" stroke-width="0.3"/>
<path d="M38.7454 57.4833H50.7869C51.3328 57.4833 51.7741 57.0413 51.7741 56.4961C51.7741 55.9507 51.3322 55.5088 50.7869 55.5088H38.7454C38.2001 55.5088 37.7582 55.9507 37.7582 56.4961C37.7582 57.0414 38.2001 57.4833 38.7454 57.4833Z" fill="#6C96F9" stroke="#6C96F9" stroke-width="0.3"/>
<path d="M41.5414 56.4961C41.5414 57.0414 41.9833 57.4833 42.5287 57.4833C43.074 57.4833 43.5159 57.0414 43.5159 56.4961V51.3026C43.5159 50.7573 43.074 50.3154 42.5287 50.3154C41.9833 50.3154 41.5414 50.7573 41.5414 51.3026V56.4961Z" fill="#6C96F9" stroke="#6C96F9" stroke-width="0.3"/>
<path d="M46.016 56.4961C46.016 57.0414 46.4579 57.4833 47.0033 57.4833C47.5486 57.4833 47.9905 57.0414 47.9905 56.4961V51.3026C47.9905 50.7573 47.5486 50.3154 47.0033 50.3154C46.4579 50.3154 46.016 50.7573 46.016 51.3026V56.4961Z" fill="#6C96F9" stroke="#6C96F9" stroke-width="0.3"/>
<path d="M31.4525 52.0535H58.0811C58.6264 52.0535 59.0683 51.6116 59.0683 51.0663V34.6887C59.0683 34.1434 58.6264 33.7015 58.0811 33.7015H31.4525C30.9072 33.7015 30.4652 34.1434 30.4652 34.6887V51.0663C30.4652 51.6116 30.9072 52.0535 31.4525 52.0535ZM57.0929 35.6754V50.079H32.4394V35.6754H57.0929Z" fill="#6C96F9" stroke="#6C96F9" stroke-width="0.3"/>
<path d="M40.9204 41.8738C40.5349 42.2593 40.5349 42.8846 40.9204 43.2701C41.3058 43.6556 41.9311 43.6556 42.3166 43.2701C42.9719 42.6154 43.8408 42.255 44.7647 42.255C45.6887 42.255 46.5576 42.6149 47.2128 43.2701C47.4055 43.4628 47.6585 43.5592 47.9109 43.5592C48.1632 43.5592 48.4162 43.4629 48.6081 43.2699C48.9935 42.8844 48.9934 42.2593 48.608 41.8738C47.5811 40.8465 46.2153 40.2805 44.7642 40.2805C43.3134 40.2805 41.9477 40.8465 40.9204 41.8738ZM40.9204 41.8738L41.0264 41.9799M40.9204 41.8738C40.9204 41.8738 40.9204 41.8738 40.9204 41.8738L41.0264 41.9799M41.0264 41.9799C40.6995 42.3068 40.6995 42.8371 41.0264 43.164C41.3534 43.4909 41.8836 43.4909 42.2105 43.164L41.0264 41.9799Z" fill="#6C96F9" stroke="#6C96F9" stroke-width="0.3"/>
<path d="M43.5783 45.2336L43.5783 45.2336C43.1928 45.6191 42.5676 45.6191 42.1821 45.2336C41.7966 44.8481 41.7966 44.2228 42.1821 43.8373M43.5783 45.2336L42.1821 43.8373M43.5783 45.2336C43.8966 44.9153 44.3189 44.7403 44.768 44.7403C45.2174 44.7403 45.6393 44.9153 45.9576 45.2336M43.5783 45.2336L45.9576 45.2336M42.1821 43.8373L42.2882 43.9434L45.9576 45.2336M42.1821 43.8373C42.873 43.1464 43.7918 42.7658 44.7681 42.7658C45.7443 42.7658 46.663 43.1464 47.354 43.8373L47.354 43.8373C47.7395 44.2228 47.7395 44.8481 47.354 45.2336L47.3539 45.2337C47.1608 45.4262 46.908 45.5227 46.6559 45.5227H46.6557C46.4033 45.5227 46.1503 45.4263 45.9576 45.2336C45.9576 45.2336 45.9576 45.2336 45.9576 45.2336" fill="#6C96F9" stroke="#6C96F9" stroke-width="0.3"/>
<path d="M41.0588 41.2824L41.0588 41.2824C40.6733 41.6679 40.0481 41.6679 39.6626 41.2824C39.2771 40.8969 39.2771 40.2716 39.6626 39.8861L41.0588 41.2824ZM41.0588 41.2824C42.0503 40.2907 43.3658 39.7455 44.7652 39.7455C46.1646 39.7455 47.4806 40.2913 48.4716 41.2824C48.6644 41.4751 48.9173 41.5715 49.1698 41.5715C49.4221 41.5715 49.6752 41.4751 49.8671 41.2821C50.2523 40.8966 50.2522 40.2716 49.8668 39.8861L49.7618 39.9911M41.0588 41.2824L49.7618 39.9911M49.7618 39.9911L49.8668 39.8861C48.5036 38.523 46.6908 37.7716 44.7647 37.7716C42.8386 37.7716 41.0263 38.5224 39.6626 39.8861L49.7618 39.9911Z" fill="#6C96F9" stroke="#6C96F9" stroke-width="0.3"/>
<path d="M44.7683 47.7052C45.4167 47.7052 45.9424 47.1796 45.9424 46.5311C45.9424 45.8826 45.4167 45.357 44.7683 45.357C44.1198 45.357 43.5941 45.8826 43.5941 46.5311C43.5941 47.1796 44.1198 47.7052 44.7683 47.7052Z" fill="#6C96F9" stroke="#6C96F9" stroke-width="0.3"/>
</svg>
