<svg width="64" height="64" viewBox="0 0 64 64" fill="none" xmlns="http://www.w3.org/2000/svg">
<path d="M10.9508 24.0013L10.9508 20.4192L10.9508 20.4182C10.8819 10.1096 23.2654 4.73826 30.4594 12.0137L30.4602 12.0146C32.624 14.1687 33.8184 17.0278 33.8184 20.0851V24.0007C32.5159 23.9327 31.3013 24.8819 31.312 26.2707V34.7418C31.3009 36.1351 32.5211 37.0823 33.8263 37.0114C33.841 37.3826 33.8269 37.7406 33.7262 38.046C33.6149 38.3834 33.3974 38.6587 32.9732 38.8138L26.8042 41.0602C26.8598 39.4732 25.8898 38.2296 24.6366 37.6749C23.3221 37.093 21.6787 37.2618 20.5615 38.5878C19.7568 39.4478 19.498 40.6999 19.7731 41.7432C20.051 42.7968 20.8784 43.6474 22.2351 43.6596L22.2535 43.6598L22.2626 43.6576C22.2631 43.6576 22.2636 43.6575 22.2641 43.6575C22.2718 43.6571 22.2833 43.6567 22.2992 43.6563C22.3306 43.6557 22.3749 43.6553 22.4307 43.6552C22.5421 43.655 22.6964 43.6558 22.8794 43.6571C22.9724 43.6578 23.0728 43.6586 23.1786 43.6594C23.4883 43.6619 23.8444 43.6647 24.1977 43.6659C24.6714 43.6675 25.1422 43.6662 25.4919 43.6572C25.6662 43.6527 25.8135 43.6462 25.9168 43.6368C25.9672 43.6322 26.0137 43.6265 26.0492 43.6182C26.0644 43.6146 26.0916 43.6077 26.1173 43.5929C26.1218 43.5902 26.1285 43.5861 26.1362 43.5803L33.7039 40.8208C33.7041 40.8207 33.7043 40.8206 33.7045 40.8206C35.0509 40.3416 35.9573 39.0459 35.9573 37.6204V36.7668C38.809 36.0609 41.099 33.2671 40.9515 30.3088C40.9098 27.4447 38.7587 24.8082 35.9578 24.1947V20.085C35.9578 16.4617 34.5409 13.0501 31.9779 10.4964C23.3704 1.88829 8.78892 8.1764 8.81106 20.4187C8.81106 20.4187 8.81106 20.4188 8.81106 20.4189L8.81106 24.1902C5.05176 25.171 3.52625 28.3168 3.90669 31.2424C4.29071 34.1956 6.61734 36.9314 10.5217 36.9988L10.5241 36.9988L11.201 36.9996H11.2012C12.4476 36.9996 13.4478 35.9884 13.4478 34.7436V26.2717C13.4597 24.8811 12.2529 23.9342 10.9508 24.0013Z" fill="#6C96F9" stroke="#6C96F9" stroke-width="0.3"/>
<path d="M51.826 57.4784L51.8532 57.4853L51.8704 57.4831C52.2432 57.4905 52.5634 57.2833 52.7514 57.0004C52.9409 56.715 53.0075 56.3355 52.8484 55.9905C52.8132 55.9062 52.0652 54.0969 51.803 51.9553H54.8945C57.3702 51.9553 59.3838 49.9413 59.3838 47.4661V34.0343C59.3838 31.5596 57.3702 29.5455 54.8946 29.5451L43.5725 29.5451L43.5703 29.5451C43.2261 29.5501 42.958 29.6838 42.7777 29.8899C42.5997 30.0933 42.5146 30.3585 42.5155 30.6187C42.5164 30.8788 42.6032 31.1434 42.7814 31.3459C42.962 31.551 43.2293 31.684 43.5709 31.6877H43.5725H54.8945C56.1881 31.6877 57.2411 32.7408 57.2411 34.0343L57.242 47.4661C57.242 48.7596 56.1889 49.8127 54.8954 49.8127H50.6494C50.0589 49.8021 49.5491 50.3255 49.5774 50.9168C49.6133 52.15 49.8252 53.3353 50.0679 54.3154C48.4595 53.1949 47.3482 51.6436 46.6373 50.3638L46.6372 50.3638C46.4483 50.024 46.0902 49.8127 45.7008 49.8127H30.4076C29.1141 49.8127 28.061 48.7597 28.061 47.4661L28.061 46.0472L28.061 46.0463C28.059 45.7036 27.926 45.4361 27.7199 45.2561C27.5166 45.0786 27.2507 44.9933 26.9899 44.9934C26.7292 44.9935 26.4633 45.0791 26.26 45.2567C26.0539 45.4367 25.9207 45.7039 25.9184 46.0462V46.0472V47.4661C25.9184 49.9413 27.932 51.9554 30.4076 51.9554H45.0838C46.3149 53.9696 48.5579 56.6522 51.826 57.4784ZM45.7008 49.9627C46.0356 49.9627 46.3436 50.1444 46.5061 50.4367L45.1681 51.8054H30.4076C28.0148 51.8054 26.0684 49.8585 26.0684 47.4661V46.0472C26.0764 44.8432 27.9038 44.8411 27.911 46.0472V47.4661C27.911 48.8425 29.0312 49.9627 30.4076 49.9627H45.7008Z" fill="#6C96F9" stroke="#6C96F9" stroke-width="0.3"/>
<path d="M52.7845 39.9777L52.7851 39.9777C53.1282 39.9764 53.3957 39.8435 53.5757 39.6371C53.7531 39.4336 53.8381 39.1673 53.8377 38.9062C53.8374 38.6452 53.7517 38.3791 53.5743 38.1757C53.3943 37.9694 53.1272 37.8364 52.7851 37.8351H52.7845H44.4932V37.8351L44.4926 37.8351C44.1495 37.8365 43.882 37.9695 43.702 38.1759C43.5246 38.3795 43.4395 38.6457 43.4398 38.9068C43.4401 39.1678 43.5258 39.4339 43.7033 39.6372C43.8833 39.8434 44.1505 39.9764 44.4926 39.9777V39.9777H44.4932L52.7845 39.9777Z" fill="#6C96F9" stroke="#6C96F9" stroke-width="0.3"/>
<path d="M38.0433 44.5849V44.5849H38.0439H52.7841H52.7848C53.1282 44.5835 53.3958 44.4505 53.5757 44.244C53.7531 44.0403 53.8377 43.7739 53.8371 43.5129C53.8365 43.2519 53.7505 42.9858 53.573 42.7826C53.393 42.5764 53.1259 42.4435 52.7842 42.4423H52.7837H38.0439V42.4423L38.0432 42.4423C37.6998 42.4437 37.4321 42.5767 37.2522 42.7832C37.0748 42.9868 36.9901 43.2532 36.9906 43.5142C36.9912 43.7753 37.0771 44.0413 37.2546 44.2446C37.4346 44.4507 37.7016 44.5837 38.0433 44.5849Z" fill="#6C96F9" stroke="#6C96F9" stroke-width="0.3"/>
</svg>
