<svg width="64" height="64" viewBox="0 0 64 64" fill="none" xmlns="http://www.w3.org/2000/svg">
<path d="M29.3811 43.1621C29.3874 43.9511 29.7037 44.7063 30.2616 45.2646C30.2616 45.2646 30.2616 45.2646 30.2616 45.2647M29.3811 43.1621L32.3848 46.2952C31.5485 46.2943 30.7468 45.962 30.1555 45.3707L30.2616 45.2647M29.3811 43.1621V43.1415C29.3811 42.345 29.6975 41.5811 30.2607 41.0179L30.2608 41.0178C30.8239 40.4542 31.5883 40.1377 32.3848 40.1377C33.1812 40.1377 33.9457 40.4542 34.5087 41.0178L34.5088 41.0179C35.072 41.5811 35.3884 42.345 35.3884 43.1415C35.3884 43.9385 35.072 44.7025 34.5088 45.2655C33.9456 45.8286 33.1813 46.1452 32.3849 46.1452M29.3811 43.1621L32.3849 46.1452M30.2616 45.2647C30.8248 45.8278 31.5883 46.1443 32.3849 46.1452M30.2616 45.2647L32.3849 46.1452M27.2786 53.7223C28.8327 54.6122 30.5929 55.0809 32.3848 55.0809C34.1768 55.0809 35.937 54.6122 37.4911 53.7223V53.6543C37.4887 52.3006 36.9499 51.0035 35.9928 50.046L27.2786 53.7223ZM27.2786 53.7223V53.6542C27.2799 52.3005 27.8188 51.0025 28.7758 50.0455C29.7332 49.0881 31.0311 48.5497 32.3848 48.5478C33.7384 48.5501 35.0359 49.089 35.9928 50.0459L27.2786 53.7223ZM32.3847 31.9534C28.6726 31.9501 25.1433 33.5643 22.718 36.3741L22.718 36.3742C20.2927 39.1846 19.2123 42.9125 19.7584 46.5838L19.7584 46.5838C20.305 50.2557 22.4245 53.5073 25.563 55.4891L25.5717 55.4945L25.5731 55.4951C25.5758 55.4971 25.58 55.5 25.5848 55.503C25.5885 55.5053 25.593 55.508 25.5983 55.5108C27.6271 56.7995 29.9813 57.4833 32.3847 57.4833C34.7879 57.4833 37.1418 56.7996 39.1705 55.5112C39.1756 55.5086 39.18 55.506 39.1836 55.5037C39.1896 55.5 39.1949 55.4963 39.1975 55.4944L39.199 55.4937L39.2064 55.4891C42.3449 53.5073 44.4644 50.2557 45.011 46.5838C45.5572 42.9125 44.4768 39.1846 42.0515 36.3742L41.9379 36.4722L42.0515 36.3741C39.6263 33.5643 36.097 31.9501 32.3847 31.9534ZM42.746 44.8803C42.699 47.5692 41.609 50.1303 39.7122 52.0266C39.2446 49.9358 37.9088 48.141 36.038 47.0931C37.0759 46.1416 37.7044 44.8199 37.7829 43.4084C37.8654 41.9241 37.3335 40.4711 36.3112 39.3913C35.2893 38.3115 33.8678 37.7004 32.381 37.7014C30.8943 37.7024 29.4737 38.3159 28.4533 39.3972C27.4328 40.4784 26.9028 41.9318 26.9878 43.416C27.0681 44.8275 27.6984 46.148 28.7373 47.0981C26.8645 48.1428 25.5267 49.9376 25.0602 52.0292C23.1631 50.1337 22.0721 47.5725 22.0242 44.8841C21.9747 42.1046 23.0438 39.4215 24.9919 37.4383L24.9919 37.4383C26.9399 35.4546 29.6033 34.3374 32.383 34.3369C35.1634 34.3365 37.8266 35.4527 39.7756 37.4355C41.7241 39.4182 42.7946 42.101 42.746 44.8803Z" fill="#6C96F9" stroke="#6C96F9" stroke-width="0.3"/>
<path d="M38.3728 28.2999V28.3267L38.153 28.2111L32.3832 25.178L26.6136 28.2106C26.2091 28.4235 25.7184 28.3881 25.3485 28.1195C24.9785 27.8508 24.7928 27.395 24.8706 26.9444L24.8706 26.9445L25.0184 26.9698L24.8706 26.9443L38.3728 28.2999ZM38.3728 28.2999C38.7259 28.4039 39.113 28.341 39.418 28.1195C39.788 27.8509 39.9736 27.3951 39.8959 26.9445L38.3728 28.2999ZM25.9728 20.5199L21.305 15.9702C21.305 15.9702 21.305 15.9702 21.305 15.9702C20.9773 15.651 20.8594 15.1738 21.0004 14.7385L21.0005 14.7383C21.1367 14.3198 21.49 14.0105 21.92 13.9295L21.9217 13.9278L21.971 13.9206L28.421 12.9835L31.3057 7.1386L31.3107 7.12848L31.3111 7.12869C31.5352 6.74935 31.9428 6.51669 32.3831 6.51669C32.8233 6.51669 33.231 6.74936 33.4551 7.1287L33.4608 7.1384L33.4604 7.13859L36.3461 12.984L42.7961 13.9211L42.7962 13.9211C43.2486 13.987 43.6251 14.3038 43.7662 14.7389L25.9728 20.5199ZM25.9728 20.5199L26.0293 20.575L26.134 20.4676L25.9728 20.5199ZM38.7936 20.52L39.8958 26.9443L38.7936 20.52ZM38.7936 20.52L43.4616 15.9707C43.7892 15.6517 43.9078 15.174 43.7662 14.739L38.7936 20.52ZM29.392 15.2706L29.3919 15.2706L24.7248 15.9483L28.1024 19.2399L28.1026 19.2401C28.382 19.5131 28.5114 19.9047 28.45 20.2903V20.2912L28.4478 20.3038L27.6502 24.9512L31.8245 22.757C31.8245 22.757 31.8246 22.757 31.8246 22.757C32.1035 22.6102 32.4257 22.5806 32.7224 22.6679V22.641L32.9422 22.7565L37.1165 24.9508L36.3189 20.3033L36.3189 20.3032C36.271 20.0224 36.3247 19.7378 36.464 19.4973H36.3997L36.6639 19.2399L40.0415 15.9482L35.3747 15.2701L35.3747 15.2701C34.9838 15.2133 34.6454 14.9672 34.471 14.6127L29.392 15.2706ZM29.392 15.2706C29.783 15.2138 30.1214 14.9676 30.2958 14.613C30.2958 14.613 30.2958 14.613 30.2958 14.613L32.3833 10.384M29.392 15.2706L32.3833 10.384M32.3833 10.384L34.4709 14.6125L32.3833 10.384Z" fill="#6C96F9" stroke="#6C96F9" stroke-width="0.3"/>
<path d="M13.8766 18.9692L13.8418 18.9773L13.8714 18.9599C13.6477 18.5804 13.24 18.3477 12.7993 18.3477C12.3591 18.3477 11.9513 18.5804 11.7277 18.9599L11.7273 18.9597L11.7224 18.9697L9.60784 23.2541L4.87872 23.9411L4.75029 23.9598V23.9674C4.35588 24.0692 4.03658 24.3659 3.90868 24.7588L3.90861 24.759C3.76763 25.1943 3.88552 25.6715 4.21318 25.9907C4.2132 25.9907 4.21322 25.9907 4.21323 25.9907L7.63521 29.3264L6.82772 34.0357L6.97556 34.061L6.82772 34.0357C6.75051 34.4861 6.93547 34.9419 7.30559 35.2106C7.67561 35.4793 8.16625 35.5147 8.5711 35.3018L12.8001 33.0784L17.03 35.3018C17.4345 35.5147 17.9252 35.4793 18.2951 35.2106C18.6653 34.9419 18.8502 34.4861 18.773 34.0357L18.773 34.0356L17.9647 29.3264L21.343 26.0337H21.3435L21.3872 25.9912C21.7148 25.6721 21.8328 25.1943 21.6912 24.7593C21.5501 24.3243 21.1736 24.0075 20.7212 23.9416L20.7212 23.9416L15.9921 23.2541L13.8766 18.9692ZM15.8357 28.0469L15.7904 28.091V28.094C15.5393 28.3668 15.4274 28.7418 15.4903 29.1101L15.4903 29.1103L15.9932 32.0432L13.3591 30.6581L13.359 30.658C13.0089 30.4741 12.5906 30.4741 12.2409 30.6581L9.60731 32.0428L10.1102 29.1103L10.1102 29.1101C10.1767 28.7204 10.0475 28.323 9.76485 28.0474L9.76484 28.0473L7.63351 25.9693L10.579 25.5414L10.579 25.5413C10.9706 25.4839 11.3089 25.2384 11.4837 24.8834C11.4837 24.8834 11.4838 24.8834 11.4838 24.8833L12.7999 22.2149L14.1173 24.8834C14.2921 25.2378 14.6299 25.484 15.0215 25.5409C15.0215 25.5409 15.0215 25.5409 15.0215 25.5409L17.9671 25.9689L15.8357 28.0469Z" fill="#6C96F9" stroke="#6C96F9" stroke-width="0.3"/>
<path d="M59.8893 23.9423L59.8894 23.9423C60.3415 24.0082 60.7174 24.3251 60.8589 24.7595L60.859 24.7597C61 25.195 60.8825 25.6722 60.5548 25.9918L60.5548 25.9918L57.1328 29.3271L57.9402 34.0364C58.0175 34.4869 57.8319 34.9422 57.4625 35.2108L57.4624 35.2109C57.0925 35.4795 56.6023 35.5155 56.1973 35.3025L56.1974 35.3023L51.9688 33.0791L47.7388 35.3025C47.334 35.5154 46.8433 35.48 46.4733 35.2113L46.4732 35.2113C46.1037 34.9426 45.9182 34.4874 45.9954 34.0364L45.9954 34.0363L46.8034 29.3271L43.3814 25.9914C43.3814 25.9914 43.3814 25.9914 43.3814 25.9913C43.0538 25.6724 42.9353 25.1951 43.0768 24.7597C43.0768 24.7596 43.0768 24.7596 43.0768 24.7596L43.2195 24.8059C43.3429 24.4253 43.6724 24.148 44.0685 24.0907L59.8893 23.9423ZM59.8893 23.9423L55.1602 23.2553M59.8893 23.9423L55.1602 23.2553M55.1602 23.2553L53.0461 18.9704L53.0049 18.8867H53.0003C52.785 18.5251 52.3938 18.3006 51.9688 18.3006C51.5114 18.3006 51.0937 18.56 50.8914 18.9703L55.1602 23.2553ZM43.9185 23.9605V23.968L50.8914 18.9704L48.776 23.2548L44.0469 23.9418L43.9185 23.9605ZM54.658 29.1104L55.1608 32.043L52.5272 30.6582L52.3074 30.5427V30.5693C52.0108 30.4818 51.6883 30.5117 51.4094 30.6588L48.7754 32.0439L49.2779 29.1109L49.2779 29.1108C49.3444 28.7215 49.2151 28.3242 48.9326 28.0481L48.9325 28.048L46.8012 25.9703L49.7467 25.5424L49.7467 25.5424C50.1377 25.4855 50.4762 25.2394 50.6505 24.8847L51.9684 22.2155L53.2845 24.8839L53.2846 24.8841C53.4599 25.2385 53.7977 25.484 54.189 25.5414L54.1892 25.5414L57.1348 25.9694L55.0475 28.0049H55.0469L55.0032 28.0476C54.7207 28.3237 54.5914 28.721 54.6579 29.1103L54.658 29.1104Z" fill="#6C96F9" stroke="#6C96F9" stroke-width="0.3"/>
</svg>
