<svg width="36" height="35" viewBox="0 0 36 35" fill="none" xmlns="http://www.w3.org/2000/svg">
<rect x="0.140625" width="35.6094" height="35" rx="17.5" fill="black" fill-opacity="0.06"/>
<path d="M24.9062 17.375C24.9062 13.3613 21.6543 10.1094 17.6406 10.1094C13.627 10.1094 10.375 13.3613 10.375 17.375C10.375 21.3887 13.627 24.6406 17.6406 24.6406C21.6543 24.6406 24.9062 21.3887 24.9062 17.375ZM11.7812 17.375C11.7812 14.1523 14.3887 11.5156 17.6406 11.5156C20.8633 11.5156 23.5 14.1523 23.5 17.375C23.5 20.627 20.8633 23.2344 17.6406 23.2344C14.3887 23.2344 11.7812 20.627 11.7812 17.375ZM13.8906 17.9609C13.8906 18.166 14.0371 18.3125 14.2422 18.3125H17.6406V20.2754C17.6406 20.5977 17.9922 20.7734 18.2266 20.5391L21.127 17.6387C21.2734 17.4922 21.2734 17.2871 21.127 17.1406L18.2266 14.2402C17.9922 14.0059 17.6406 14.1816 17.6406 14.4746V16.4375H14.2422C14.0371 16.4375 13.8906 16.6133 13.8906 16.7891V17.9609Z" fill="white"/>
</svg>
