<svg width="47" height="69" viewBox="0 0 47 69" fill="none" xmlns="http://www.w3.org/2000/svg">
<g clip-path="url(#clip0_1_3)">
<path fill-rule="evenodd" clip-rule="evenodd" d="M13.0444 43.3883C15.5395 44.7282 18.3114 45.6169 21.2502 45.9446L17.7717 55.4877L15.1548 50.7596L9.65684 52.6801L13.0444 43.3883ZM1 23.2927C1 30.7518 4.60156 37.3852 10.1567 41.5458L4.09766 58.1658L13.5953 54.8472L18.4005 63.5302L23.3737 49.8856L30.4319 69.25L35.237 60.5671L44.734 63.8857L36.7642 42.0253C42.6951 37.9058 46.5855 31.045 46.5855 23.2927C46.5855 10.7243 36.3606 0.5 23.7927 0.5C11.2249 0.5 1 10.7255 1 23.2927ZM25.5237 46.0204C28.4868 45.7969 31.2936 45.0042 33.8348 43.7519L39.1748 58.4005L33.6775 56.4795L31.0606 61.2082L25.5237 46.0204ZM23.7927 3.8459C13.0697 3.8459 4.34441 12.5709 4.34441 23.2942C4.34441 34.0166 13.0694 42.7426 23.7927 42.7426C34.5161 42.7426 43.2411 34.0175 43.2411 23.2942C43.2411 12.5718 34.5161 3.8459 23.7927 3.8459ZM12.7422 24.6725L22.6942 35.255L34.975 15.6885L32.1417 13.9109L22.1634 29.8088L15.1788 22.3815L12.7422 24.6725Z" fill="#6C96F9"/>
</g>
<defs>
<clipPath id="clip0_1_3">
<rect width="47" height="69" fill="white"/>
</clipPath>
</defs>
</svg>
