<svg width="69" height="70" viewBox="0 0 69 70" fill="none" xmlns="http://www.w3.org/2000/svg">
<path fill-rule="evenodd" clip-rule="evenodd" d="M61.5727 0.500012H7.17733C3.21865 0.500012 0 3.71866 0 7.67734V43.9409C0 47.8996 3.21865 51.1182 7.17733 51.1182H19.6429V57.9176H17.7544C13.7957 57.9176 10.577 61.1363 10.577 65.095V66.9835H5.66618C4.22885 66.9835 4.20411 69.25 5.66618 69.25H63.083C64.538 69.25 64.5547 66.9835 63.0835 66.9835H58.1727L58.1732 65.0945C58.1732 61.1358 54.9545 57.9171 50.9958 57.9171H49.1073V51.1177L61.5729 51.1182C65.5316 51.1182 68.7502 47.8996 68.7502 43.9409V7.67733C68.7502 3.71865 65.5316 0.5 61.5729 0.5L61.5727 0.500012ZM50.9956 60.1846C53.7002 60.1846 55.9065 62.3904 55.9065 65.0955V66.984H12.8435V65.095C12.8435 62.3904 15.0498 60.1841 17.7544 60.1841L50.9956 60.1846ZM21.9097 57.9182V51.1187H46.8408V57.9182H21.9097ZM66.484 43.9412C66.484 46.6458 64.2778 48.852 61.5732 48.852H7.17785C4.47324 48.852 2.26699 46.6458 2.26699 43.9412V42.0526H66.4833L66.484 43.9412ZM66.484 39.7861H2.26647V7.67734C2.26647 4.97273 4.47272 2.76648 7.17733 2.76648H61.5727C64.2773 2.76648 66.4835 4.97221 66.4835 7.67734L66.484 39.7861ZM18.8876 45.4523C18.8876 46.0781 18.3801 46.5855 17.7543 46.5855C17.1285 46.5855 16.6211 46.0781 16.6211 45.4523C16.6211 44.8265 17.1285 44.3191 17.7543 44.3191C18.3801 44.3191 18.8876 44.8265 18.8876 45.4523ZM13.2192 46.5855C13.845 46.5855 14.3524 46.0781 14.3524 45.4523C14.3524 44.8265 13.845 44.3191 13.2192 44.3191C12.5934 44.3191 12.0859 44.8265 12.0859 45.4523C12.0859 46.0781 12.5934 46.5855 13.2192 46.5855ZM9.82116 45.4523C9.82116 46.0781 9.31373 46.5855 8.68792 46.5855C8.06212 46.5855 7.55469 46.0781 7.55469 45.4523C7.55469 44.8265 8.06212 44.3191 8.68792 44.3191C9.31373 44.3191 9.82116 44.8265 9.82116 45.4523ZM32.8326 31.9001C31.2588 33.4739 28.5349 33.4795 26.956 31.9001L26.9557 31.9003L20.5474 25.491C18.9269 23.8705 18.9269 21.2348 20.5474 19.6143C22.1208 18.0399 24.8573 18.0425 26.4256 19.6123L29.8946 23.0808L42.3232 10.6521C43.9432 9.0332 46.5784 9.03165 48.1989 10.6521C49.8208 12.2752 49.8208 14.9104 48.2019 16.5308L32.8326 31.9001ZM24.823 21.2148C24.093 20.4848 22.8834 20.4837 22.1524 21.2148C21.4137 21.9534 21.4143 23.1525 22.1504 23.8881L28.5587 30.2974C29.2943 31.0335 30.4943 31.0325 31.2304 30.2974L46.5997 14.9282C47.3358 14.1921 47.3348 12.9936 46.5997 12.2575C45.8606 11.5204 44.662 11.5173 43.9259 12.2544L30.6962 25.4842C30.2535 25.9268 29.5361 25.9268 29.0935 25.4842L24.823 21.2148Z" fill="#6C96F9"/>
</svg>
