<svg width="241" height="46" fill="none" xmlns="http://www.w3.org/2000/svg"><path d="M57 20.153L38.492 29.14v16.824l18.498-8.979V20.171H57v-.018z" fill="#6C96F9"/><path d="M38.47 29.158l-18.551-9.005-.032.027v16.796l18.561 9.006.022.018.021-.009.01.009-.02-.018.01-.018V29.14l-.021.018z" fill="#257DE3"/><path d="M18.594.018L18.605 0l-.01.009V0l-.043.018-.054.018V16.86l.075-.018 18.53 9.005V9.024L18.593.018z" fill="#6C96F9"/><path d="M0 9.014V25.83l.01.018 18.488-8.988V.037L0 9.014z" fill="#257DE3"/><path d="M17.225 20.153L0 28.51v16.832l17.215-8.358V20.171h.01v-.018z" fill="#6C96F9"/><path d="M56.99.657L39.775 9.015v16.814l.011.018L56.99 17.49V.657z" fill="#257DE3"/><path d="M71 18.645c0-1.426.576-2.495.576-2.495.573-1.067 1.558-1.753 1.558-1.753.986-.684 2.298-1.04 2.298-1.04C76.746 13 78.224 13 78.224 13c1.805 0 3.473.412 3.473.412 1.67.41 2.955 1.122 2.955 1.122v4.658c-1.231-.932-2.791-1.37-2.791-1.37-1.558-.439-3.228-.439-3.228-.439-1.396.029-1.914.357-1.914.357-.52.329-.52.876-.52.876 0 .63.737 1.014.737 1.014.74.383 1.834.794 1.834.794a53.05 53.05 0 002.407.822c1.314.412 2.38 1.206 2.38 1.206 1.067.795 1.86 1.864 1.86 1.864.795 1.067.74 2.82.74 2.82 0 1.7-.602 2.823-.602 2.823-.602 1.124-1.642 1.808-1.642 1.808-1.04.686-2.462.959-2.462.959C80.03 33 78.496 33 78.496 33c-2.08 0-3.938-.438-3.938-.438-1.86-.439-3.42-1.315-3.42-1.315v-4.795c1.723 1.178 3.528 1.671 3.528 1.671 1.806.494 3.447.494 3.447.494 1.505 0 2.162-.274 2.162-.274.656-.275.683-1.014.683-1.014 0-.684-.739-1.123-.739-1.123-.737-.438-1.832-.823-1.832-.823-1.094-.383-2.407-.848-2.407-.848-1.314-.467-2.38-1.206-2.38-1.206-1.068-.74-1.86-1.835-1.86-1.835-.794-1.096-.74-2.85-.74-2.85zM97.437 13v20h-5.279V13h5.279zm5.999 20V13h4.994l7.817 11.486c-.058-.714-.086-1.6-.086-1.6-.029-.887-.029-1.715-.029-1.715V13h5.279v20h-4.993l-7.817-11.458c.056.716.085 1.572.085 1.572.028.857.028 1.715.028 1.715V33h-5.278zm23.976 0l7.847-20h5.705l7.847 20h-5.422l-1.14-3.142h-8.275L132.834 33h-5.422zm8.132-7.43h5.136l-2.055-5.77c-.143-.372-.256-.8-.256-.8-.115-.429-.257-1.228-.257-1.228-.143.799-.258 1.228-.258 1.228-.113.428-.256.8-.256.8l-2.054 5.77zM162.713 13c1.855 0 3.424.314 3.424.314a8.27 8.27 0 012.768 1.143c1.198.829 1.825 2.114 1.825 2.114.628 1.286.685 3.286.685 3.286 0 1.971-.655 3.285-.655 3.285-.657 1.316-1.855 2.087-1.855 2.087-1.199.771-2.739 1.143-2.739 1.143-1.541.371-3.453.343-3.453.343h-2.624V33h-5.278V13h7.902zm3.281 6.857c0-.686-.227-1.115-.227-1.115-.228-.428-.685-.714-.685-.714a2.604 2.604 0 00-.971-.343 80.723 80.723 0 00-1.14-.114h-2.882v4.571h2.882c.598 0 1.14-.085 1.14-.085.542-.085.971-.372.971-.372.427-.286.655-.685.655-.685.229-.4.257-1.143.257-1.143zm11.421-1.212c0-1.426.573-2.495.573-2.495.575-1.067 1.56-1.753 1.56-1.753.986-.684 2.298-1.04 2.298-1.04C183.16 13 184.638 13 184.638 13c1.805 0 3.473.412 3.473.412a13.372 13.372 0 012.955 1.122v4.658c-1.231-.932-2.791-1.37-2.791-1.37-1.56-.439-3.228-.439-3.228-.439-1.396.029-1.915.357-1.915.357-.52.329-.52.876-.52.876 0 .63.739 1.014.739 1.014.738.383 1.833.794 1.833.794 1.095.412 2.407.822 2.407.822 1.314.412 2.381 1.206 2.381 1.206 1.066.795 1.86 1.864 1.86 1.864.794 1.067.739 2.82.739 2.82 0 1.7-.602 2.823-.602 2.823-.602 1.124-1.641 1.808-1.641 1.808-1.04.686-2.463.959-2.463.959-1.422.274-2.955.274-2.955.274-2.079 0-3.94-.438-3.94-.438-1.86-.439-3.418-1.315-3.418-1.315v-4.795a13.19 13.19 0 003.529 1.671c1.805.494 3.446.494 3.446.494 1.505 0 2.162-.274 2.162-.274.657-.275.683-1.014.683-1.014 0-.684-.738-1.123-.738-1.123-.739-.438-1.833-.823-1.833-.823-1.094-.383-2.408-.848-2.408-.848a11.419 11.419 0 01-2.379-1.206c-1.068-.74-1.86-1.835-1.86-1.835-.794-1.096-.739-2.85-.739-2.85zM206.361 33v-6.829L198.572 13h5.992l4.423 8.258L213.409 13h5.992l-7.789 13.171V33h-5.251zm19.04-14.355c0-1.426.575-2.495.575-2.495.574-1.067 1.558-1.753 1.558-1.753.986-.684 2.299-1.04 2.299-1.04 1.313-.357 2.791-.357 2.791-.357 1.805 0 3.473.412 3.473.412 1.67.41 2.956 1.122 2.956 1.122v4.658c-1.232-.932-2.792-1.37-2.792-1.37-1.558-.439-3.227-.439-3.227-.439-1.396.029-1.916.357-1.916.357-.518.329-.518.876-.518.876 0 .63.737 1.014.737 1.014.739.383 1.834.794 1.834.794 1.094.412 2.407.822 2.407.822 1.313.412 2.38 1.206 2.38 1.206 1.066.795 1.86 1.864 1.86 1.864.794 1.067.739 2.82.739 2.82 0 1.7-.602 2.823-.602 2.823-.601 1.124-1.641 1.808-1.641 1.808-1.04.686-2.462.959-2.462.959-1.423.274-2.956.274-2.956.274-2.079 0-3.938-.438-3.938-.438-1.86-.439-3.42-1.315-3.42-1.315v-4.795a13.205 13.205 0 003.529 1.671 14.65 14.65 0 003.447.494c1.504 0 2.161-.274 2.161-.274.657-.275.684-1.014.684-1.014 0-.684-.739-1.123-.739-1.123-.737-.438-1.832-.823-1.832-.823a735.533 735.533 0 01-2.407-.848c-1.314-.467-2.381-1.206-2.381-1.206-1.068-.74-1.86-1.835-1.86-1.835-.794-1.096-.739-2.85-.739-2.85z" fill="#6C96F9"/></svg>