<svg width="64" height="64" viewBox="0 0 64 64" fill="none" xmlns="http://www.w3.org/2000/svg">
<path d="M10.6673 48.4H34.445C34.3428 49.1388 34.2673 49.8913 34.2673 50.6667C34.2673 51.442 34.3428 52.1945 34.445 52.9333H10.6673C9.35892 52.9333 8.1041 52.4136 7.17892 51.4884C6.25374 50.5632 5.73398 49.3084 5.73398 48V16C5.73398 13.2609 7.92823 11.0667 10.6673 11.0667H26.5016L31.7178 16.2828L31.835 16.4H32.0006H53.334C54.6424 16.4 55.8972 16.9198 56.8224 17.8449C57.7476 18.7701 58.2673 20.0249 58.2673 21.3333V36.1526C56.8586 35.4212 55.3419 34.8959 53.734 34.5755V21.3333V20.9333H53.334H10.6673H10.2673V21.3333V48V48.4H10.6673ZM58.2673 53.3333V53.7333H58.6673H61.8133L56.0006 60.7085L50.188 53.7333H53.334H53.734V53.3333V43.0667H58.2673V53.3333ZM43.0673 48V47.6H42.6673H39.5213L45.334 40.6248L51.1466 47.6H48.0006H47.6006V48V58.2667H43.0673V48Z" fill="#6C96F9" stroke="#F5F8FF" stroke-width="0.8"/>
</svg>
